<?xml version="1.0" standalone="no"?>
<!DOCTYPE svg PUBLIC "-//W3C//DTD SVG 20010904//EN"
 "http://www.w3.org/TR/2001/REC-SVG-20010904/DTD/svg10.dtd">
<svg version="1.0" xmlns="http://www.w3.org/2000/svg"
 width="600.000000pt" height="600.000000pt" viewBox="0 0 600.000000 600.000000"
 preserveAspectRatio="xMidYMid meet">
<metadata>
Created by potrace 1.11, written by Peter Selinger 2001-2013
</metadata>
<g transform="translate(0.000000,600.000000) scale(0.100000,-0.100000)"
fill="#000000" stroke="none">
<path d="M160 5980 c-70 -24 -123 -79 -144 -151 -14 -47 -16 -332 -16 -2820 0
-1963 3 -2783 11 -2819 14 -66 62 -127 124 -159 l49 -26 2816 0 2815 0 55 31
c68 38 114 108 123 186 4 29 7 1291 7 2804 0 3086 7 2818 -75 2899 -81 82 191
75 -2929 75 -2703 -1 -2783 -1 -2836 -20z m3176 -375 c1010 -132 1852 -836
2163 -1810 89 -276 126 -544 118 -855 -5 -237 -23 -372 -77 -586 -49 -193 -93
-311 -190 -509 -397 -814 -1188 -1364 -2094 -1456 -150 -15 -514 -6 -651 15
-150 24 -374 82 -515 134 -246 90 -532 252 -740 418 -105 85 -306 284 -387
384 -303 376 -491 802 -564 1281 -28 184 -32 550 -6 724 68 477 247 903 535
1275 91 117 296 325 417 423 279 225 615 397 960 492 325 89 693 114 1031 70z"/>
<path d="M2720 5235 c-514 -64 -978 -296 -1340 -671 -277 -287 -460 -615 -561
-1002 -16 -62 -29 -122 -29 -133 0 -18 11 -19 345 -19 l345 0 0 -375 0 -375
-351 0 -351 0 6 -47 c12 -80 73 -302 109 -398 201 -525 587 -955 1084 -1207
784 -399 1732 -302 2418 247 90 72 249 229 331 327 143 171 273 392 359 612
42 108 104 326 120 424 l7 42 -366 0 -366 0 0 375 0 375 360 0 c281 0 360 3
360 13 0 6 -11 57 -25 112 -47 195 -129 405 -221 567 -361 638 -999 1059
-1726 1137 -128 14 -377 12 -508 -4z m-130 -1270 l0 -555 375 0 375 0 0 555 0
555 380 0 380 0 0 -1500 0 -1500 -380 0 -380 0 0 570 0 570 -375 0 -375 0 0
-570 0 -570 -370 0 -370 0 0 1500 0 1500 370 0 370 0 0 -555z"/>
</g>
</svg>
